<?xml version="1.0" encoding="UTF-8"?>
<mxfile host="app.diagrams.net">
  <diagram name="業務フロー比較" id="as_is_to_be_flow">
    <mxGraphModel dx="1000" dy="1000" grid="1" gridSize="10" guides="1" tooltips="1" connect="1" arrows="1" fold="1" page="1" pageScale="1" pageWidth="827" pageHeight="1169" math="0" shadow="0">
      <root>
        <mxCell id="0"/>
        <mxCell id="1" parent="0"/>
        <!-- As-Is タイトル -->
        <mxCell id="as_is_title" value="As-Is（現状の業務）" style="text;html=1;fontSize=16;fontColor=#1565C0;fontStyle=1;" vertex="1" parent="1">
          <mxGeometry x="60" y="20" width="200" height="30" as="geometry"/>
        </mxCell>
        <!-- To-Be タイトル -->
        <mxCell id="to_be_title" value="To-Be（あるべき姿の業務）" style="text;html=1;fontSize=16;fontColor=#2E7D32;fontStyle=1;" vertex="1" parent="1">
          <mxGeometry x="400" y="20" width="250" height="30" as="geometry"/>
        </mxCell>
        <!-- As-Isノード -->
        <mxCell id="as_emp" value="従業員" style="rounded=1;whiteSpace=wrap;html=1;fillColor=#E3F2FD;strokeColor=#1565C0;" vertex="1" parent="1">
          <mxGeometry x="60" y="80" width="80" height="40" as="geometry"/>
        </mxCell>
        <mxCell id="as_soumu" value="支店総務" style="rounded=1;whiteSpace=wrap;html=1;fillColor=#FFF9C4;strokeColor=#F9A825;" vertex="1" parent="1">
          <mxGeometry x="200" y="80" width="80" height="40" as="geometry"/>
        </mxCell>
        <mxCell id="as_hr" value="本社人事部" style="rounded=1;whiteSpace=wrap;html=1;fillColor=#FFEBEE;strokeColor=#C62828;" vertex="1" parent="1">
          <mxGeometry x="340" y="80" width="100" height="40" as="geometry"/>
        </mxCell>
        <!-- As-Isフロー -->
        <mxCell id="as_q1" style="edgeStyle=orthogonalEdgeStyle;rounded=0;html=1;strokeColor=#1565C0;endArrow=block;endFill=1;" edge="1" parent="1" source="as_emp" target="as_soumu">
          <mxGeometry relative="1" as="geometry">
            <mxPoint x="140" y="100" as="targetPoint"/>
          </mxGeometry>
        </mxCell>
        <mxCell id="as_a1" value="規程集確認・回答（10～20分）" style="edgeStyle=orthogonalEdgeStyle;rounded=0;html=1;strokeColor=#F9A825;endArrow=block;endFill=1;fontSize=12;" edge="1" parent="1" source="as_soumu" target="as_emp">
          <mxGeometry relative="1" as="geometry">
            <mxPoint x="100" y="120" as="targetPoint"/>
          </mxGeometry>
        </mxCell>
        <mxCell id="as_escalate" value="不明な場合" style="edgeStyle=orthogonalEdgeStyle;rounded=0;html=1;strokeColor=#C62828;dashed=1;endArrow=block;endFill=1;fontSize=12;" edge="1" parent="1" source="as_soumu" target="as_hr">
          <mxGeometry relative="1" as="geometry">
            <mxPoint x="340" y="100" as="targetPoint"/>
          </mxGeometry>
        </mxCell>
        <mxCell id="as_hr_reply" value="回答" style="edgeStyle=orthogonalEdgeStyle;rounded=0;html=1;strokeColor=#C62828;endArrow=block;endFill=1;fontSize=12;" edge="1" parent="1" source="as_hr" target="as_soumu">
          <mxGeometry relative="1" as="geometry">
            <mxPoint x="240" y="120" as="targetPoint"/>
          </mxGeometry>
        </mxCell>
        <!-- To-Beノード -->
        <mxCell id="to_emp" value="従業員" style="rounded=1;whiteSpace=wrap;html=1;fillColor=#E3F2FD;strokeColor=#1565C0;" vertex="1" parent="1">
          <mxGeometry x="400" y="80" width="80" height="40" as="geometry"/>
        </mxCell>
        <mxCell id="to_bot" value="チャットボット" style="rounded=1;whiteSpace=wrap;html=1;fillColor=#E8F5E9;strokeColor=#2E7D32;" vertex="1" parent="1">
          <mxGeometry x="540" y="80" width="100" height="40" as="geometry"/>
        </mxCell>
        <!-- To-Beフロー -->
        <mxCell id="to_q1" value="自然言語で質問" style="edgeStyle=orthogonalEdgeStyle;rounded=0;html=1;strokeColor=#1565C0;endArrow=block;endFill=1;fontSize=12;" edge="1" parent="1" source="to_emp" target="to_bot">
          <mxGeometry relative="1" as="geometry">
            <mxPoint x="540" y="100" as="targetPoint"/>
          </mxGeometry>
        </mxCell>
        <mxCell id="to_a1" value="ナレッジベース検索・即時回答" style="edgeStyle=orthogonalEdgeStyle;rounded=0;html=1;strokeColor=#2E7D32;endArrow=block;endFill=1;fontSize=12;" edge="1" parent="1" source="to_bot" target="to_emp">
          <mxGeometry relative="1" as="geometry">
            <mxPoint x="480" y="120" as="targetPoint"/>
          </mxGeometry>
        </mxCell>
        <mxCell id="to_self" value="自己解決" style="edgeStyle=orthogonalEdgeStyle;rounded=0;html=1;strokeColor=#1565C0;dashed=1;endArrow=block;endFill=1;fontSize=12;" edge="1" parent="1" source="to_emp" target="to_emp">
          <mxGeometry relative="1" as="geometry">
            <mxPoint x="440" y="140" as="targetPoint"/>
          </mxGeometry>
        </mxCell>
      </root>
    </mxGraphModel>
  </diagram>
</mxfile>